<?xml version="1.0" encoding="utf-8"?>
<!-- Generator: Adobe Illustrator 16.0.0, SVG Export Plug-In . SVG Version: 6.00 Build 0)  -->
<!DOCTYPE svg PUBLIC "-//W3C//DTD SVG 1.1//EN" "http://www.w3.org/Graphics/SVG/1.1/DTD/svg11.dtd">
<svg version="1.1" id="Layer_1" xmlns="http://www.w3.org/2000/svg" xmlns:xlink="http://www.w3.org/1999/xlink" x="0px" y="0px"
	 width="2268.227px" height="841.89px" viewBox="0 0 2268.227 841.89" enable-background="new 0 0 2268.227 841.89"
	 xml:space="preserve">
<g>
	<path fill="#415841" d="M81.794,440.851v-4.8c0-1.399,0.699-2.1,2.1-2.1h6.75c1.399,0,2.1,0.7,2.1,2.1v3.9
		c0,9,4.448,13.5,13.35,13.5h13.2c8.899,0,13.35-4.599,13.35-13.8v-5.101c0-7.2-5.951-11.899-17.85-14.1c-5.001-0.9-10-1.95-15-3.15
		c-5.001-1.2-9.25-3.524-12.75-6.975c-3.501-3.45-5.25-8.175-5.25-14.175v-7.351c0-6.899,1.974-12.323,5.925-16.274
		c3.949-3.949,9.375-5.926,16.275-5.926h16.65c6.799,0,12.199,1.977,16.2,5.926c3.999,3.951,6,9.375,6,16.274v3.75
		c0,1.5-0.652,2.25-1.95,2.25h-6.9c-1.301,0-1.95-0.75-1.95-2.25v-2.7c0-9.098-4.451-13.649-13.35-13.649h-12.75
		c-8.902,0-13.35,4.751-13.35,14.25v6c0,5.1,3.349,8.602,10.05,10.5c3,0.802,6.3,1.525,9.9,2.175c3.6,0.651,7.224,1.5,10.875,2.55
		c3.649,1.05,6.975,2.351,9.975,3.9c3,1.552,5.423,3.899,7.275,7.05c1.85,3.15,2.775,6.975,2.775,11.475v6.75
		c0,6.9-2.002,12.326-6,16.275c-4.001,3.951-9.401,5.925-16.2,5.925h-17.25c-6.802,0-12.202-1.974-16.2-5.925
		C83.793,453.177,81.794,447.751,81.794,440.851z"/>
	<path fill="#415841" d="M189.643,463.051h-6.75c-1.401,0-2.1-0.698-2.1-2.1v-83.4c0-0.899-0.501-1.35-1.5-1.35h-20.4
		c-1.5,0-2.25-0.698-2.25-2.101v-5.399c0-1.399,0.75-2.101,2.25-2.101h54.75c1.5,0,2.25,0.701,2.25,2.101v5.399
		c0,1.402-0.75,2.101-2.25,2.101h-20.4c-1.001,0-1.5,0.45-1.5,1.35v83.4C191.743,462.353,191.042,463.051,189.643,463.051z"/>
	<path fill="#415841" d="M353.29,463.051h-6.75c-1.402,0-2.1-0.698-2.1-2.1v-92.25c0-1.399,0.698-2.101,2.1-2.101h35.1
		c6.9,0,12.3,1.977,16.2,5.926c3.9,3.951,5.85,9.375,5.85,16.274v16.65c0,7.001-1.95,12.45-5.85,16.35
		c-3.9,3.9-9.3,5.851-16.2,5.851h-24.75c-1,0-1.5,0.449-1.5,1.35v31.95C355.39,462.353,354.689,463.051,353.29,463.051z
		 M356.89,417.901h23.25c8.4,0,12.6-4.299,12.6-12.9v-15.75c0-8.7-4.2-13.05-12.6-13.05h-23.25c-1,0-1.5,0.45-1.5,1.35v39
		C355.39,417.451,355.889,417.901,356.89,417.901z"/>
	<path fill="#415841" d="M422.288,440.851v-4.8c0-1.399,0.699-2.1,2.1-2.1h6.75c1.399,0,2.1,0.7,2.1,2.1v3.9
		c0,9,4.448,13.5,13.35,13.5h13.2c8.899,0,13.35-4.599,13.35-13.8v-5.101c0-7.2-5.951-11.899-17.85-14.1c-5.001-0.9-10-1.95-15-3.15
		c-5.001-1.2-9.25-3.524-12.75-6.975c-3.501-3.45-5.25-8.175-5.25-14.175v-7.351c0-6.899,1.974-12.323,5.925-16.274
		c3.949-3.949,9.375-5.926,16.275-5.926h16.65c6.799,0,12.199,1.977,16.2,5.926c3.999,3.951,6,9.375,6,16.274v3.75
		c0,1.5-0.652,2.25-1.95,2.25h-6.9c-1.301,0-1.95-0.75-1.95-2.25v-2.7c0-9.098-4.451-13.649-13.35-13.649h-12.75
		c-8.902,0-13.35,4.751-13.35,14.25v6c0,5.1,3.349,8.602,10.05,10.5c3,0.802,6.3,1.525,9.9,2.175c3.6,0.651,7.224,1.5,10.875,2.55
		c3.649,1.05,6.975,2.351,9.975,3.9c3,1.552,5.423,3.899,7.275,7.05c1.85,3.15,2.775,6.975,2.775,11.475v6.75
		c0,6.9-2.002,12.326-6,16.275c-4.001,3.951-9.401,5.925-16.2,5.925h-17.25c-6.802,0-12.202-1.974-16.2-5.925
		C424.287,453.177,422.288,447.751,422.288,440.851z"/>
	<path fill="#415841" d="M544.687,460.951v-92.25c0-1.399,0.698-2.101,2.1-2.101h35.25c6.9,0,12.301,1.927,16.2,5.775
		c3.9,3.851,5.851,9.225,5.851,16.125v8.25c0,8.901-4.2,14.65-12.601,17.25c3.8,0.3,7.05,1.976,9.75,5.025
		c2.7,3.051,4.05,7.075,4.05,12.074v10.051c0,6.899-1.976,12.276-5.925,16.125c-3.951,3.851-9.375,5.774-16.274,5.774h-36.3
		C545.385,463.051,544.687,462.353,544.687,460.951z M557.137,409.351h23.1c8.799,0,13.2-4.249,13.2-12.75v-7.949
		c0-8.499-4.252-12.75-12.75-12.75h-23.55c-1.001,0-1.5,0.501-1.5,1.5v30.6C555.637,408.901,556.136,409.351,557.137,409.351z
		 M557.137,453.751h24.6c8.6,0,12.9-4.249,12.9-12.75v-9.75c0-8.498-4.601-12.75-13.8-12.75h-23.7c-1.001,0-1.5,0.45-1.5,1.35v32.4
		C555.637,453.252,556.136,453.751,557.137,453.751z"/>
	<path fill="#415841" d="M655.985,463.051h-6.75c-1.401,0-2.1-0.698-2.1-2.1v-34.05l-28.5-58.051c-0.3-0.698-0.3-1.249,0-1.649
		c0.3-0.398,0.75-0.601,1.35-0.601h8.4c1.099,0,1.95,0.701,2.55,2.101l21.45,45.45h0.75l21.3-45.45c0.398-1.399,1.2-2.101,2.4-2.101
		h8.55c1.699,0,2.149,0.75,1.35,2.25l-28.649,58.051v34.05C658.086,462.353,657.385,463.051,655.985,463.051z"/>
	<path fill="#415841" d="M739.085,440.851v-4.8c0-1.399,0.698-2.1,2.101-2.1h6.75c1.398,0,2.1,0.7,2.1,2.1v3.9
		c0,9,4.448,13.5,13.35,13.5h13.2c8.899,0,13.351-4.599,13.351-13.8v-5.101c0-7.2-5.951-11.899-17.851-14.1
		c-5.001-0.9-10.001-1.95-15-3.15c-5.001-1.2-9.251-3.524-12.75-6.975c-3.501-3.45-5.25-8.175-5.25-14.175v-7.351
		c0-6.899,1.974-12.323,5.925-16.274c3.949-3.949,9.375-5.926,16.275-5.926h16.65c6.799,0,12.199,1.977,16.199,5.926
		c3.999,3.951,6,9.375,6,16.274v3.75c0,1.5-0.651,2.25-1.949,2.25h-6.9c-1.301,0-1.95-0.75-1.95-2.25v-2.7
		c0-9.098-4.45-13.649-13.35-13.649h-12.75c-8.901,0-13.351,4.751-13.351,14.25v6c0,5.1,3.35,8.602,10.051,10.5
		c3,0.802,6.3,1.525,9.899,2.175c3.601,0.651,7.224,1.5,10.875,2.55c3.649,1.05,6.976,2.351,9.976,3.9
		c3,1.552,5.423,3.899,7.274,7.05c1.85,3.15,2.775,6.975,2.775,11.475v6.75c0,6.9-2.002,12.326-6,16.275
		c-4.001,3.951-9.401,5.925-16.2,5.925h-17.25c-6.802,0-12.201-1.974-16.2-5.925C741.084,453.177,739.085,447.751,739.085,440.851z"
		/>
	<path fill="#415841" d="M846.935,463.051h-6.75c-1.402,0-2.101-0.698-2.101-2.1v-83.4c0-0.899-0.501-1.35-1.5-1.35h-20.399
		c-1.5,0-2.25-0.698-2.25-2.101v-5.399c0-1.399,0.75-2.101,2.25-2.101h54.75c1.5,0,2.25,0.701,2.25,2.101v5.399
		c0,1.402-0.75,2.101-2.25,2.101h-20.4c-1.001,0-1.5,0.45-1.5,1.35v83.4C849.034,462.353,848.333,463.051,846.935,463.051z"/>
	<path fill="#415841" d="M1010.582,463.051h-6.75c-1.401,0-2.101-0.698-2.101-2.1v-92.25c0-1.399,0.699-2.101,2.101-2.101h35.1
		c6.9,0,12.3,1.977,16.2,5.926c3.9,3.951,5.85,9.375,5.85,16.274v16.65c0,7.001-1.949,12.45-5.85,16.35
		c-3.9,3.9-9.3,5.851-16.2,5.851h-24.75c-1.001,0-1.5,0.449-1.5,1.35v31.95C1012.682,462.353,1011.981,463.051,1010.582,463.051z
		 M1014.182,417.901h23.25c8.4,0,12.601-4.299,12.601-12.9v-15.75c0-8.7-4.2-13.05-12.601-13.05h-23.25c-1.001,0-1.5,0.45-1.5,1.35
		v39C1012.682,417.451,1013.181,417.901,1014.182,417.901z"/>
	<path fill="#415841" d="M1155.629,463.051h-16.2c-6.899,0-12.325-1.95-16.274-5.85c-3.952-3.9-5.926-9.35-5.926-16.351v-52.05
		c0-6.998,1.974-12.45,5.926-16.35c3.949-3.9,9.375-5.851,16.274-5.851h16.2c6.9,0,12.3,1.977,16.2,5.926
		c3.899,3.951,5.85,9.375,5.85,16.274v6.15c0,1.5-0.7,2.25-2.1,2.25h-6.75c-1.401,0-2.101-0.75-2.101-2.25v-5.7
		c0-8.7-4.15-13.05-12.449-13.05h-13.65c-8.302,0-12.45,4.35-12.45,13.05v51.15c0,8.699,4.148,13.05,12.45,13.05h13.65
		c8.299,0,12.449-4.351,12.449-13.05v-16.801c0-0.998-0.449-1.5-1.35-1.5h-14.85c-1.402,0-2.101-0.648-2.101-1.949v-5.551
		c0-1.398,0.698-2.1,2.101-2.1h24.149c1.999,0,3,1.05,3,3.15v25.199c0,7.001-1.95,12.45-5.85,16.351
		C1167.929,461.101,1162.529,463.051,1155.629,463.051z"/>
	<path fill="#415841" d="M1238.427,463.051h-17.851c-6.899,0-12.325-1.95-16.274-5.85c-3.952-3.9-5.926-9.35-5.926-16.351v-52.05
		c0-6.998,1.974-12.45,5.926-16.35c3.949-3.9,9.375-5.851,16.274-5.851h17.851c6.899,0,12.323,1.977,16.274,5.926
		c3.949,3.951,5.925,9.375,5.925,16.274v52.05c0,6.9-1.976,12.326-5.925,16.275C1250.75,461.077,1245.326,463.051,1238.427,463.051z
		 M1221.776,453.451h15.3c8.4,0,12.601-4.351,12.601-13.05v-51.15c0-8.7-4.2-13.05-12.601-13.05h-15.3
		c-8.302,0-12.45,4.35-12.45,13.05v51.15C1209.326,449.101,1213.475,453.451,1221.776,453.451z"/>
	<path fill="#415841" d="M1332.025,463.051h-47.1c-1.401,0-2.101-0.698-2.101-2.1v-92.25c0-1.399,0.699-2.101,2.101-2.101h47.1
		c1.399,0,2.101,0.701,2.101,2.101v5.399c0,1.402-0.701,2.101-2.101,2.101h-36.75c-1.001,0-1.5,0.45-1.5,1.35v30.3
		c0,0.9,0.499,1.351,1.5,1.351h32.101c1.398,0,2.1,0.7,2.1,2.1v5.4c0,1.401-0.701,2.1-2.1,2.1h-32.101c-1.001,0-1.5,0.45-1.5,1.351
		v31.949c0,0.9,0.499,1.351,1.5,1.351h36.75c1.399,0,2.101,0.7,2.101,2.1v5.4C1334.126,462.353,1333.425,463.051,1332.025,463.051z"
		/>
	<path fill="#415841" d="M1353.775,440.851v-4.8c0-1.399,0.698-2.1,2.101-2.1h6.75c1.398,0,2.1,0.7,2.1,2.1v3.9
		c0,9,4.448,13.5,13.35,13.5h13.2c8.899,0,13.351-4.599,13.351-13.8v-5.101c0-7.2-5.951-11.899-17.851-14.1
		c-5.001-0.9-10.001-1.95-15-3.15c-5.001-1.2-9.251-3.524-12.75-6.975c-3.501-3.45-5.25-8.175-5.25-14.175v-7.351
		c0-6.899,1.974-12.323,5.925-16.274c3.949-3.949,9.375-5.926,16.275-5.926h16.65c6.799,0,12.199,1.977,16.199,5.926
		c3.999,3.951,6,9.375,6,16.274v3.75c0,1.5-0.651,2.25-1.949,2.25h-6.9c-1.301,0-1.95-0.75-1.95-2.25v-2.7
		c0-9.098-4.45-13.649-13.35-13.649h-12.75c-8.901,0-13.351,4.751-13.351,14.25v6c0,5.1,3.35,8.602,10.051,10.5
		c3,0.802,6.3,1.525,9.899,2.175c3.601,0.651,7.224,1.5,10.875,2.55c3.649,1.05,6.976,2.351,9.976,3.9
		c3,1.552,5.423,3.899,7.274,7.05c1.85,3.15,2.775,6.975,2.775,11.475v6.75c0,6.9-2.002,12.326-6,16.275
		c-4.001,3.951-9.401,5.925-16.2,5.925h-17.25c-6.802,0-12.201-1.974-16.2-5.925
		C1355.774,453.177,1353.775,447.751,1353.775,440.851z"/>
	<path fill="#415841" d="M1477.374,463.051h-7.5c-1.301,0-1.751-0.698-1.35-2.1l28.05-92.25c0.398-1.399,1.35-2.101,2.85-2.101
		h10.801c1.5,0,2.449,0.701,2.85,2.101l28.05,92.25c0.398,1.401-0.052,2.1-1.35,2.1h-7.65c-1.102,0-1.8-0.698-2.1-2.1l-7.05-21.9
		h-36.301l-7.05,21.9C1479.224,462.353,1478.474,463.051,1477.374,463.051z M1504.524,377.851l-15.45,51.9h31.5l-15.45-51.9
		H1504.524z"/>
	<path fill="#415841" d="M1645.522,463.051h-48.149c-1.401,0-2.101-0.698-2.101-2.1v-92.25c0-1.399,0.699-2.101,2.101-2.101h6.75
		c1.399,0,2.1,0.701,2.1,2.101v83.1c0,0.9,0.499,1.351,1.5,1.351h37.8c1.399,0,2.101,0.75,2.101,2.25v5.55
		C1647.623,462.353,1646.922,463.051,1645.522,463.051z"/>
	<path fill="#415841" d="M1701.472,463.051h-17.851c-6.899,0-12.325-1.95-16.274-5.85c-3.952-3.9-5.926-9.35-5.926-16.351v-52.05
		c0-6.998,1.974-12.45,5.926-16.35c3.949-3.9,9.375-5.851,16.274-5.851h17.851c6.899,0,12.323,1.977,16.274,5.926
		c3.949,3.951,5.925,9.375,5.925,16.274v52.05c0,6.9-1.976,12.326-5.925,16.275C1713.795,461.077,1708.371,463.051,1701.472,463.051
		z M1684.821,453.451h15.3c8.4,0,12.601-4.351,12.601-13.05v-51.15c0-8.7-4.2-13.05-12.601-13.05h-15.3
		c-8.302,0-12.45,4.35-12.45,13.05v51.15C1672.371,449.101,1676.52,453.451,1684.821,453.451z"/>
	<path fill="#415841" d="M1754.57,463.051h-6.6c-1.401,0-2.101-0.698-2.101-2.1v-92.25c0-1.399,0.699-2.101,2.101-2.101h6.149
		c1.2,0,2,0.401,2.4,1.2l41.4,72.75h0.6v-71.85c0-1.399,0.698-2.101,2.1-2.101h6.601c1.399,0,2.1,0.701,2.1,2.101v92.25
		c0,1.401-0.7,2.1-2.1,2.1h-5.55c-1.102,0-2.152-0.649-3.15-1.95l-41.25-72h-0.6v71.851
		C1756.671,462.353,1755.97,463.051,1754.57,463.051z"/>
	<path fill="#415841" d="M1869.919,463.051h-16.2c-6.899,0-12.325-1.95-16.274-5.85c-3.952-3.9-5.926-9.35-5.926-16.351v-52.05
		c0-6.998,1.974-12.45,5.926-16.35c3.949-3.9,9.375-5.851,16.274-5.851h16.2c6.9,0,12.3,1.977,16.2,5.926
		c3.899,3.951,5.85,9.375,5.85,16.274v6.15c0,1.5-0.7,2.25-2.1,2.25h-6.75c-1.401,0-2.101-0.75-2.101-2.25v-5.7
		c0-8.7-4.15-13.05-12.449-13.05h-13.65c-8.302,0-12.45,4.35-12.45,13.05v51.15c0,8.699,4.148,13.05,12.45,13.05h13.65
		c8.299,0,12.449-4.351,12.449-13.05v-16.801c0-0.998-0.449-1.5-1.35-1.5h-14.85c-1.402,0-2.101-0.648-2.101-1.949v-5.551
		c0-1.398,0.698-2.1,2.101-2.1h24.149c1.999,0,3,1.05,3,3.15v25.199c0,7.001-1.95,12.45-5.85,16.351
		C1882.219,461.101,1876.819,463.051,1869.919,463.051z"/>
	<path fill="#415841" d="M1977.767,463.051h-11.55c-1.401,0-2.25-0.698-2.55-2.1l-19.2-92.25c-0.3-1.399,0.35-2.101,1.95-2.101h8.1
		c1.5,0,2.3,0.701,2.4,2.101l15.15,82.649h0.899l20.25-82.8c0.3-1.298,1.1-1.95,2.4-1.95h9c1.298,0,2.1,0.652,2.399,1.95
		l20.551,82.8h0.899l15-82.5c0.3-1.5,1.148-2.25,2.55-2.25h8.101c1.599,0,2.25,0.75,1.95,2.25l-19.351,92.101
		c-0.3,1.401-1.102,2.1-2.399,2.1h-11.551c-1.401,0-2.25-0.698-2.55-2.1l-19.649-80.55h-0.601l-19.8,80.55
		C1979.867,462.353,1979.065,463.051,1977.767,463.051z"/>
	<path fill="#415841" d="M2073.016,463.051h-7.5c-1.301,0-1.751-0.698-1.35-2.1l28.05-92.25c0.398-1.399,1.35-2.101,2.85-2.101
		h10.801c1.5,0,2.449,0.701,2.85,2.101l28.05,92.25c0.398,1.401-0.052,2.1-1.35,2.1h-7.65c-1.102,0-1.8-0.698-2.1-2.1l-7.05-21.9
		h-36.301l-7.05,21.9C2074.865,462.353,2074.115,463.051,2073.016,463.051z M2100.166,377.851l-15.45,51.9h31.5l-15.45-51.9
		H2100.166z"/>
	<path fill="#415841" d="M2181.765,463.051h-6.75c-1.401,0-2.1-0.698-2.1-2.1v-34.05l-28.5-58.051c-0.3-0.698-0.3-1.249,0-1.649
		c0.3-0.398,0.75-0.601,1.35-0.601h8.4c1.099,0,1.95,0.701,2.55,2.101l21.45,45.45h0.75l21.3-45.45c0.398-1.399,1.2-2.101,2.4-2.101
		h8.55c1.699,0,2.149,0.75,1.35,2.25l-28.649,58.051v34.05C2183.865,462.353,2183.164,463.051,2181.765,463.051z"/>
</g>
<g>
</g>
<g>
	<path fill="#415841" d="M325.98,373.752c0,1.302-1.212,2.355-2.705,2.355h-45.684c-1.493,0-2.707-1.054-2.707-2.355v-4.712
		c0-1.302,1.214-2.355,2.707-2.355h45.684c1.493,0,2.705,1.054,2.705,2.355V373.752z"/>
</g>
<g>
	<path fill="#415841" d="M285.076,460.695c0,1.302-1.212,2.355-2.705,2.355h-45.684c-1.493,0-2.707-1.054-2.707-2.355v-4.712
		c0-1.302,1.214-2.355,2.707-2.355h45.684c1.493,0,2.705,1.054,2.705,2.355V460.695z"/>
</g>
<g>
	<path fill="#415841" d="M306.576,417.224c0,1.302-1.212,2.355-2.705,2.355h-45.684c-1.493,0-2.707-1.054-2.707-2.355v-4.712
		c0-1.302,1.214-2.355,2.707-2.355h45.684c1.493,0,2.705,1.054,2.705,2.355V417.224z"/>
</g>
<g>
	<path fill="#415841" d="M983.414,373.752c0,1.302-1.212,2.355-2.705,2.355h-45.684c-1.493,0-2.707-1.054-2.707-2.355v-4.712
		c0-1.302,1.214-2.355,2.707-2.355h45.684c1.493,0,2.705,1.054,2.705,2.355V373.752z"/>
</g>
<g>
	<path fill="#415841" d="M942.51,460.695c0,1.302-1.212,2.355-2.705,2.355h-45.684c-1.493,0-2.707-1.054-2.707-2.355v-4.712
		c0-1.302,1.214-2.355,2.707-2.355h45.684c1.493,0,2.705,1.054,2.705,2.355V460.695z"/>
</g>
<g>
	<path fill="#415841" d="M964.01,417.224c0,1.302-1.212,2.355-2.705,2.355h-45.684c-1.493,0-2.707-1.054-2.707-2.355v-4.712
		c0-1.302,1.214-2.355,2.707-2.355h45.684c1.493,0,2.705,1.054,2.705,2.355V417.224z"/>
</g>
</svg>
